<?xml version="1.0" encoding="iso-8859-1"?>
<!-- Generator: Adobe Illustrator 27.0.0, SVG Export Plug-In . SVG Version: 6.00 Build 0)  -->
<svg version="1.1" id="Layer_2" xmlns="http://www.w3.org/2000/svg" xmlns:xlink="http://www.w3.org/1999/xlink" x="0px" y="0px"
	 viewBox="0 0 500 500" style="enable-background:new 0 0 500 500;" xml:space="preserve">
<g>
	<path style="fill-rule:evenodd;clip-rule:evenodd;fill:currentColor;" d="M275.612,260.293l10.894,0.589L278.432,250
		c-1.404-1.754-3.159-4.563-5.616-8.775l-4.564-10.881h-3.51v10.881c0,4.564,0.703,7.021,1.755,7.021h4.213v2.807h-21.413v-2.807
		h3.159c0.351,0,0.703-0.352,0.703-0.703v-35.101c0-2.106-0.351-3.51-0.703-3.861c-0.351-0.351-1.053-0.702-1.754-0.702h-3.159
		v-2.808h23.167c3.159,0,6.318,0.702,8.775,1.755c4.914,2.458,7.371,6.318,7.371,12.286c0,1.755-0.703,3.159-1.756,4.914
		c-1.754,2.457-4.562,3.861-7.722,4.212c1.404,2.457,8.424,13.689,21.412,33.346l10.53,0.352l-7.722-9.127
		c-4.563-5.968-7.021-10.53-7.371-12.987c-0.351-3.861,0.703-6.67,2.457-9.127c2.106-2.457,5.265-3.51,9.126-3.51
		c5.266,0,8.775,4.563,10.531,14.041c-2.808-7.021-7.371-9.478-13.339-7.021c-1.754,0.703-3.159,1.756-3.51,2.808l-0.351,2.106
		c0,2.457,1.053,4.563,3.51,6.318c2.457,2.106,5.616,3.159,9.478,3.159c3.861,0,7.02-1.053,9.477-2.807
		c2.457-2.458,3.861-5.266,3.861-8.776c0-2.457-0.702-4.562-2.458-6.318c-1.404-1.053-3.509-2.457-6.318-3.51l-8.072-2.808
		c-3.159-1.404-5.617-2.808-7.371-4.212c-4.213-3.159-6.318-7.723-6.318-12.988c0-5.968,2.807-10.882,8.072-14.04
		c4.564-3.16,9.829-4.564,16.147-4.564c5.266,0,9.478,0.703,12.988,1.755l0.702,8.424c0.351,1.404-0.351,2.106-1.404,2.106
		c-1.053,0-1.754-0.703-2.106-2.106c-0.351-1.755-1.754-3.511-3.861-4.563c-1.755-1.052-4.212-1.404-6.669-1.404
		c-3.159,0-5.616,0.703-7.722,2.106c-2.457,1.756-3.862,4.213-3.862,7.371c0,2.106,0.703,3.861,2.458,5.265
		c1.052,1.053,3.159,2.106,5.966,3.159l8.074,3.159c3.159,1.052,5.968,2.808,8.424,4.562c1.755,1.756,3.159,3.861,4.212,6.318
		c1.053,2.458,1.756,4.914,1.756,7.371c0,8.074-2.809,13.691-8.424,16.849c-4.914,2.458-12.636,3.861-22.816,3.861
		c-0.702,0-0.351,1.053,1.053,2.809c1.053,2.106,2.808,4.212,5.265,6.318l27.73,1.404l23.167,2.808
		c-0.351,1.053-14.391,2.106-42.122,3.159c3.862,2.457,8.074,3.861,11.935,4.914c7.371,1.404,14.041,1.404,19.656,0
		c3.511-1.053,8.074-3.159,13.689-6.319c6.318-3.509,11.233-5.966,15.095-7.371c7.019-2.456,15.093-3.509,24.219-3.509
		c7.02,0,12.637,1.053,16.849,3.509c3.51,2.106,5.616,4.564,6.318,7.723c0.702,3.159,0,5.616-1.755,8.072
		c-2.106,2.458-5.266,3.511-9.127,3.511c6.67-9.477,1.053-15.444-16.848-17.551c-5.266-0.351-10.531,0-15.444,1.053
		c-3.861,0.702-7.723,2.106-12.286,4.562l-11.233,5.266c-4.563,2.106-8.424,3.511-11.934,3.861
		c-7.371,1.053-15.093,0.351-22.464-2.106c-4.212-1.755-8.074-3.51-11.233-5.616l-13.339,0.351l27.379,41.771l-20.709-20.008
		c-1.052,0-6.669-6.67-16.848-20.359l-0.703-1.053l-13.338,0.684v0.369c0,0.021-0.038,0.32-0.044,0.34l-0.005,0.02
		c-0.112,0.447-0.263,0.896-0.45,1.339c-0.183,0.432-0.393,0.847-0.631,1.237l0.004,0.003c-1.205,1.982-3.149,3.536-5.682,4.663
		l-0.045,0.02c-0.482,0.213-0.984,0.404-1.498,0.572c-0.486,0.159-1.013,0.301-1.568,0.425c-2.725,0.605-5.721,0.57-8.702-0.242
		l-0.018-0.005c-0.568-0.155-1.135-0.337-1.693-0.541c-0.54-0.198-1.073-0.42-1.593-0.66c-2.657-1.229-4.879-2.943-6.518-4.854
		l0.001-0.001c-1.365-1.565-2.25-3.147-2.699-4.744c-0.464-1.648-0.465-3.293-0.056-4.93l0.005-0.02
		c0.113-0.447,0.263-0.896,0.45-1.339c0.183-0.433,0.393-0.848,0.631-1.238l-0.004-0.002c1.205-1.983,3.149-3.537,5.682-4.663
		c0.001-0.001,0.124-0.05,0.126-0.05l0.044-0.014c0.453-0.149,0.942-0.291,1.466-0.422v-0.001c0.497-0.124,1.014-0.233,1.542-0.323
		c2.674-0.456,5.624-0.422,8.573,0.372c0.341,0.051,0.696,0.118,1.064,0.2v0.001c0.409,0.092,0.78,0.188,1.111,0.287
		c1.891,0.57,3.677,1.483,5.066,2.594c0.002,0.002,0.107,0.102,0.11,0.104L275.612,260.293L275.612,260.293z M277.028,270.899
		v-0.891c0-0.007,0.016-0.192,0.017-0.197c0.145-1.023,0.073-2.045-0.253-3.06c-0.334-1.039-0.936-2.094-1.846-3.162l-2.33-2.329
		c-1.116-0.888-2.557-1.621-4.088-2.082c-0.34-0.101-0.649-0.185-0.918-0.245h-0.004c-0.287-0.065-0.596-0.122-0.919-0.168
		l-0.035-0.005c-0.004,0-0.166-0.032-0.17-0.033c-2.555-0.697-5.112-0.728-7.429-0.334c-0.45,0.076-0.896,0.172-1.333,0.28h-0.005
		c-0.406,0.102-0.825,0.226-1.251,0.365c-1.965,0.885-3.453,2.061-4.34,3.523h-0.006c-0.173,0.283-0.321,0.574-0.445,0.867
		c-0.119,0.285-0.223,0.597-0.307,0.933l-0.005,0.02c-0.293,1.169-0.294,2.335,0.032,3.494c0.338,1.206,1.033,2.429,2.117,3.669
		l0.011,0.011c1.386,1.617,3.281,3.075,5.564,4.13c0.441,0.204,0.905,0.396,1.385,0.571c0.464,0.169,0.954,0.326,1.462,0.465
		l0.018,0.005c2.544,0.693,5.078,0.729,7.363,0.221c0.42-0.093,0.858-0.214,1.305-0.36c0.422-0.137,0.834-0.295,1.237-0.473
		l0.044-0.02c2-0.888,3.51-2.076,4.409-3.555h0.006c0.173-0.282,0.322-0.573,0.445-0.867
		C276.859,271.434,276.951,271.176,277.028,270.899L277.028,270.899z M272.816,225.429c-1.405,1.404-3.511,2.106-6.319,2.106h-1.755
		v-18.253c0-0.351,0.351-0.703,1.404-0.703c2.458,0,4.914,1.053,6.67,3.159c1.754,2.106,2.457,4.563,2.457,7.021
		C275.273,221.568,274.571,223.674,272.816,225.429L272.816,225.429z M385.842,205.07v2.808h-2.457l-1.052,0.351l-0.352,1.053
		v31.942c0,4.564,0.703,7.021,1.756,7.021h3.861v2.807h-21.061v-2.807h3.159c0.351,0,0.702-0.352,0.702-0.703v-19.656h-15.444
		v13.338c0,4.564,0.702,7.021,1.755,7.021h4.212v2.807h-21.411v-2.807h3.159c0.351,0,0.703-0.352,0.703-0.703v-35.101
		c0-2.106-0.351-3.51-0.703-3.861c-0.351-0.351-0.702-0.702-1.404-0.702h-3.511v-2.808h21.413v2.808h-2.809l-1.053,0.351
		l-0.351,1.053v15.444h15.444v-12.285c0-2.106-0.35-3.51-0.702-3.861c-0.351-0.351-0.702-0.702-1.404-0.702h-3.51v-2.808H385.842
		L385.842,205.07z M393.564,246.49c4.563,3.861,10.179,5.968,17.2,5.968c8.775,0,15.444-3.159,20.008-9.126
		c3.861-4.563,5.616-10.18,5.616-16.498c0-7.02-2.106-12.636-6.67-16.849c-4.564-4.212-10.179-6.318-17.2-6.318
		c-8.775,0-15.444,3.159-20.008,9.127c-3.861,4.914-5.616,10.53-5.616,16.498C386.895,236.662,389.001,242.278,393.564,246.49
		L393.564,246.49z M435.335,205.07v2.808h3.509c0.703,0,1.053,0.351,1.405,0.702c0.351,0.351,0.701,1.756,0.701,3.861v35.101
		c0,0.351-0.351,0.703-0.701,0.703h-3.159v2.807h21.412v-2.807h-4.213c-1.053,0-1.755-2.457-1.755-7.021v-11.584l5.968,0.703
		c5.265,0,9.477-1.404,12.636-4.212c2.457-2.457,3.861-5.266,3.861-8.424c0-3.159-1.053-5.617-3.511-8.074
		c-2.807-3.159-7.02-4.563-12.636-4.563H435.335L435.335,205.07z M409.712,206.825c5.265,0,9.478,3.159,11.934,9.829
		c2.106,4.914,3.159,10.53,3.159,16.497c0,4.564-0.702,8.074-2.106,10.882c-2.106,3.51-5.265,5.265-9.126,5.265
		c-5.265,0-9.478-3.159-12.285-9.477c-1.755-4.914-2.808-10.531-2.808-16.849c0-4.212,0.702-7.723,2.106-10.531
		C402.34,208.58,405.499,206.825,409.712,206.825L409.712,206.825z M460.959,211.739c1.756,2.106,2.458,4.563,2.458,7.371
		c0,2.457-0.703,4.212-2.106,5.616c-1.756,1.756-3.511,2.458-5.968,2.458l-2.808-0.702v-17.199c0-0.351,0.702-0.703,1.755-0.703
		C457.098,208.58,459.204,209.633,460.959,211.739L460.959,211.739z M293.175,265.795l0.703-1.755l1.754-0.702
		c0.703,0,1.404,0.351,1.756,0.702l0.702,1.755c0,0.702-0.351,1.404-0.702,1.755c-0.351,0.351-1.053,0.703-1.756,0.703l-1.754-0.703
		C293.525,267.2,293.175,266.497,293.175,265.795L293.175,265.795z M29.564,193.837c1.053,0,1.754,0.351,2.106,0.703
		c0.701,1.053,1.052,2.807,1.052,5.265v46.685c0,0.351-0.702,0.703-1.755,0.703l-4.563,0.351v3.51h21.412l9.828-0.351
		c3.861-0.351,7.02-1.053,9.477-2.106c3.511-1.053,6.318-2.807,8.424-5.265c2.106-2.809,3.16-5.967,3.16-9.478
		c0-8.775-5.616-14.391-16.849-16.849l0,0c4.212-1.053,7.371-2.457,9.126-3.861c3.16-2.457,4.914-5.616,4.914-9.478
		c0-2.457-1.052-4.914-2.808-7.371c-3.51-3.86-9.126-5.967-17.199-5.967H25v3.51H29.564L29.564,193.837z M95.906,205.421
		l-8.776,20.008c-5.266,12.636-8.073,20.008-8.776,21.763c0,0.351-0.351,0.701-0.702,1.053h-1.404h-2.106v2.807h14.392v-2.807
		h-5.266l-0.351-1.053c0-1.053,0.703-3.511,1.756-6.67l2.106-5.265h13.689c2.809,8.074,4.213,11.935,4.213,12.286
		s-0.351,0.703-1.053,0.703h-3.159v2.807h21.061v-2.807h-2.106c-1.053,0-1.756-0.352-2.106-1.405l-2.457-5.265l-7.723-20.358
		c-3.16-8.074-4.563-12.637-4.563-13.339l1.053-1.404c0.351-0.351,0.703-0.703,0.703-1.053c0-0.703-0.352-1.053-1.053-1.053
		L95.906,205.421L95.906,205.421z M50.273,194.54c3.51,0,6.318,1.053,8.776,3.51c2.457,2.457,3.51,5.616,3.51,9.126
		c0,2.106-0.351,3.861-1.053,5.265c-1.053,1.755-2.457,3.159-4.213,3.51l-9.477-0.702v-19.656
		C47.816,194.891,48.518,194.54,50.273,194.54L50.273,194.54z M47.816,231.747V218.76c5.967,0,10.179,1.754,12.987,5.616
		c2.106,2.808,3.16,5.968,3.16,9.478c0,3.511-1.053,6.669-3.16,9.126c-2.457,2.457-5.265,3.861-8.775,3.861l-2.106-0.351
		c-0.702-0.351-1.053-0.701-1.404-1.404C48.167,243.331,47.816,239.118,47.816,231.747L47.816,231.747z M87.832,232.098
		l6.318-14.391l5.266,14.391H87.832L87.832,232.098z M126.794,212.441v35.101c0,0.351-0.351,0.703-0.703,0.703h-3.159v2.807h21.412
		v-2.807h-4.212c-1.053,0-1.756-2.457-1.756-7.021v-10.881h3.51l4.914,10.881c2.106,4.212,3.861,7.021,5.616,8.775
		c0.351,0.351,0.702,0.703,1.404,1.053h13.689v-2.807c-1.404,0-2.808-0.703-3.861-1.756c-3.861-3.861-7.722-10.179-12.286-18.253
		c3.159-0.351,5.616-1.755,7.371-4.212c1.404-1.756,2.106-3.159,2.106-4.914c0-5.968-2.456-9.828-7.722-12.286
		c-2.457-1.053-5.265-1.755-8.424-1.755h-23.518v2.808h3.51c0.703,0,1.053,0.351,1.404,0.702
		C126.444,208.931,126.794,210.336,126.794,212.441L126.794,212.441z M140.133,208.58c2.457,0,4.562,1.053,6.318,3.159
		c1.754,2.106,2.457,4.563,2.457,7.021c0,2.807-0.703,4.914-2.106,6.669c-1.755,1.404-3.861,2.106-6.318,2.106h-2.106v-18.253
		C138.377,208.931,139.08,208.58,140.133,208.58L140.133,208.58z M173.128,212.441v35.101c0,0.351-0.351,0.703-0.702,0.703h-3.159
		v2.807h15.445c6.669,0,11.583-0.702,14.392-1.755c5.966-2.106,8.775-5.967,8.775-11.233c0-6.669-4.213-10.881-12.637-12.636l0,0
		c3.159-1.053,5.266-2.106,7.021-3.16c2.457-1.755,3.51-3.861,3.51-7.02c0-1.755-0.703-3.51-2.106-5.266
		c-2.457-3.159-7.02-4.914-12.987-4.914h-23.167v2.808h3.51c0.702,0,1.053,0.351,1.404,0.702
		C172.777,208.931,173.128,210.336,173.128,212.441L173.128,212.441z M211.74,207.878h-3.511v-2.808h36.856l-0.702,7.371
		c-0.351,0.702-0.702,1.053-1.404,1.053c-0.701,0-1.053-0.351-1.053-1.404l-0.701-1.404l-1.404-1.053l-5.967-1.053h-8.074
		l-0.351,1.053v15.093h3.861c3.861,0,6.318-0.351,7.371-0.701c0.703-0.351,1.053-1.053,1.053-2.106v-2.457h2.458v12.636h-2.458
		v-1.052c0-1.404-0.351-2.106-0.702-2.457c-0.702-0.351-2.458-0.702-5.265-0.702h-6.318v8.775c0,4.563,0,7.722,0.351,9.477
		c0.351,1.053,0.703,1.754,1.404,1.754l10.882-0.701c3.861-0.703,5.967-2.106,7.02-3.861l1.404-1.053
		c0.702,0,1.053,0.351,1.053,1.053c0,1.052-0.703,3.509-2.106,7.722h-35.453v-2.807h3.159c0.351,0,0.703-0.352,0.703-0.703v-35.101
		c0-2.106-0.352-3.51-0.703-3.861C212.793,208.229,212.441,207.878,211.74,207.878L211.74,207.878z M191.732,224.376l-7.021-0.351
		v-14.743c0-0.351,0.703-0.703,1.755-0.703c2.457,0,4.914,0.703,6.669,2.458c1.755,1.755,2.457,4.212,2.457,7.02
		c0,1.404-0.351,2.808-0.702,3.861C194.189,223.323,193.136,224.025,191.732,224.376L191.732,224.376z M187.87,247.893l-1.755-0.351
		c-0.351,0-0.701-0.351-0.701-1.053c-0.352-1.053-0.703-4.563-0.703-9.828v-9.829c4.212,0,7.371,1.404,9.828,4.213
		c1.755,2.106,2.458,4.563,2.458,7.02c0,2.457-1.053,4.914-2.808,6.669C192.433,246.84,190.327,247.893,187.87,247.893
		L187.87,247.893z"/>
</g>
</svg>
